<?xml version="1.0" standalone="no"?>
<!DOCTYPE svg PUBLIC "-//W3C//DTD SVG 20010904//EN"
 "http://www.w3.org/TR/2001/REC-SVG-20010904/DTD/svg10.dtd">
<svg version="1.0" xmlns="http://www.w3.org/2000/svg"
 width="700.000000pt" height="700.000000pt" viewBox="0 0 700.000000 700.000000"
 preserveAspectRatio="xMidYMid meet">
<metadata>
Created by potrace 1.11, written by Peter Selinger 2001-2013
</metadata>
<g transform="translate(0.000000,700.000000) scale(0.100000,-0.100000)"
fill="#000000" stroke="none">
<path d="M3167 6203 c-1 0 -141 -4 -312 -8 -170 -4 -332 -8 -360 -10 -74 -3
-295 -16 -335 -19 -140 -12 -205 -20 -270 -33 -41 -8 -82 -16 -91 -18 -34 -7
-153 -58 -212 -92 -113 -64 -221 -158 -300 -263 -113 -150 -338 -598 -512
-1017 l-68 -163 -48 0 -48 0 0 90 c0 79 -3 96 -27 140 -29 53 -80 93 -133 105
-55 12 -246 9 -295 -5 -101 -28 -164 -120 -152 -222 11 -89 59 -146 155 -182
112 -43 181 -54 343 -55 84 -1 153 -3 155 -4 7 -8 -75 -223 -120 -315 -61
-122 -94 -176 -217 -352 -48 -69 -99 -147 -113 -175 -26 -52 -73 -179 -81
-218 -3 -12 -8 -33 -11 -47 -10 -47 -18 -133 -18 -219 -2 -161 14 -271 87
-615 l26 -119 0 -686 1 -686 23 -51 c31 -66 80 -116 142 -144 47 -22 62 -23
304 -24 140 -1 278 3 305 7 89 15 170 83 206 172 8 20 13 109 14 270 l2 240
2294 1 2294 0 -1 -232 c0 -201 2 -239 18 -281 19 -52 56 -98 103 -130 63 -42
97 -46 386 -46 l276 0 54 27 c61 31 99 68 132 129 l22 42 2 650 c2 615 5 777
17 835 3 14 19 77 35 142 16 64 32 140 36 170 4 29 8 55 10 58 5 8 18 187 19
265 4 248 -64 443 -237 685 -102 143 -162 240 -217 355 -37 80 -113 285 -107
292 2 1 71 3 154 3 160 2 235 13 335 51 170 63 222 241 104 354 -24 23 -60 46
-86 54 -47 14 -246 18 -301 6 -69 -15 -136 -82 -153 -150 -4 -16 -7 -65 -7
-107 l0 -78 -48 0 c-55 0 -43 -18 -126 185 -158 384 -372 811 -495 985 -34 49
-139 156 -196 200 -151 119 -344 189 -564 205 -41 3 -89 7 -107 9 -27 4 -157
11 -363 21 -216 11 -1315 26 -1323 18z"/>
</g>
</svg>
